<?xml version="1.0" encoding="UTF-8" standalone="no"?>
<!-- Created with Inkscape (http://www.inkscape.org/) -->

<svg
   width="316.67017mm"
   height="113.02991mm"
   viewBox="0 0 316.67017 113.02991"
   version="1.1"
   id="svg5"
   inkscape:version="1.1.2 (b8e25be833, 2022-02-05)"
   sodipodi:docname="GameBankLogoDrawing - Copy.svg"
   xmlns:inkscape="http://www.inkscape.org/namespaces/inkscape"
   xmlns:sodipodi="http://sodipodi.sourceforge.net/DTD/sodipodi-0.dtd"
   xmlns="http://www.w3.org/2000/svg"
   xmlns:svg="http://www.w3.org/2000/svg">
  <sodipodi:namedview
     id="namedview7"
     pagecolor="#ffffff"
     bordercolor="#666666"
     borderopacity="1.0"
     inkscape:pageshadow="2"
     inkscape:pageopacity="0.0"
     inkscape:pagecheckerboard="0"
     inkscape:document-units="mm"
     showgrid="false"
     width="512mm"
     fit-margin-top="0"
     fit-margin-left="0"
     fit-margin-right="0"
     fit-margin-bottom="0"
     inkscape:zoom="0.375"
     inkscape:cx="958.66667"
     inkscape:cy="552"
     inkscape:window-width="1920"
     inkscape:window-height="1027"
     inkscape:window-x="-8"
     inkscape:window-y="22"
     inkscape:window-maximized="1"
     inkscape:current-layer="g154" />
  <defs
     id="defs2" />
  <g
     inkscape:label="Layer 1"
     inkscape:groupmode="layer"
     id="layer1"
     transform="translate(-4.2412577,-2.7516319)">
    <g
       id="g201"
       transform="translate(0.70555989,38.1)">
      <g
         id="g154"
         transform="translate(134.76111,-155.92778)">
        <path
           style="fill:#333333;fill-opacity:1;stroke-width:0.472722"
           d="m -95.772756,231.98409 c -10.884044,-4.78644 -19.528564,-11.91902 -25.629664,-21.14698 -6.80621,-10.29446 -9.81979,-20.23362 -9.82299,-32.39746 -0.003,-12.17552 3.09221,-22.44804 9.80331,-32.53338 8.49299,-12.76317 22.523604,-22.00373 37.410114,-24.63832 5.20375,-0.92095 15.16479,-0.91747 20.44162,0.007 6.85902,1.20186 14.74421,4.32214 20.7425,8.20811 13.16352,8.52795 21.92607,21.42563 25.59082,37.66737 0.41137,1.82311 0.63738,5.87598 0.63268,11.34533 -0.007,7.80333 -0.1188,8.94024 -1.35179,13.70895 -4.85848,18.79073 -17.14427,32.97074 -34.77251,40.13373 -6.40091,2.60092 -6.64448,2.203 -6.64448,-10.85501 0,-10.61075 -0.35165,-12.98061 -2.34062,-15.77386 -1.1578,-1.62598 -1.11624,-1.66386 2.34062,-2.13311 3.56079,-0.48336 9.24056,-2.58289 12.25088,-4.52856 10.80072,-6.98084 13.91037,-26.96609 5.86532,-37.6956 -1.12977,-1.50675 -1.14341,-1.62698 -0.57101,-5.03351 0.5014,-2.98398 0.47381,-4.06142 -0.19032,-7.43242 -0.47329,-2.40236 -1.0829,-4.16642 -1.56049,-4.51564 -1.46144,-1.06863 -7.37884,0.68105 -12.6457,3.73912 -3.03246,1.76072 -3.35511,1.8472 -5.19994,1.39366 -6.70905,-1.64938 -15.27779,-1.75078 -23.07859,-0.2731 l -3.62098,0.68592 -2.84181,-1.66554 c -5.43696,-3.18651 -11.083924,-4.96895 -12.812074,-4.04408 -1.67337,0.89557 -2.72355,8.19686 -1.80424,12.54383 l 0.59983,2.83633 -1.75326,2.52627 c -2.90779,4.18986 -3.91586,7.89659 -3.87683,14.25537 0.073,11.89796 4.36528,20.00333 12.828844,24.22557 1.88405,0.9399 5.07492,2.05455 7.09083,2.477 2.01591,0.42245 4.15415,0.8692 4.75165,0.99278 l 1.08637,0.22469 -0.97664,1.24158 c -0.53714,0.68287 -1.29787,2.34663 -1.6905,3.69722 -0.81631,2.80801 -1.79845,3.47666 -5.70112,3.8814 -4.61085,0.47817 -7.689574,-1.24701 -11.613974,-6.50799 -1.80351,-2.41775 -3.08006,-3.60061 -4.82334,-4.46932 -2.72805,-1.35944 -5.55182,-1.54197 -6.48373,-0.41909 -0.54783,0.66009 -0.413,0.94516 1.00574,2.1264 3.68702,3.0698 5.21643,4.90673 6.86766,8.24857 1.97851,4.0042 3.71582,5.90001 6.79928,7.41961 1.861304,0.9173 2.905924,1.06111 7.707604,1.06111 h 5.55449 v 5.55448 c 0,4.92419 -0.10729,5.66177 -0.94545,6.49993 -1.29359,1.29359 -2.4863,1.17852 -6.61811,-0.63851 z m 115.53249,-30.65144 c -9.30819,-0.95172 -15.0497296,-6.22923 -17.0438196,-15.66636 -1.14256,-5.40722 -0.67194,-15.53985 0.94782,-20.4066 2.00783,-6.03279 5.49324,-9.8729 10.8207696,-11.92197 2.98908,-1.14965 14.26455,-1.14624 17.99104,0.005 1.50731,0.46584 2.8609,1.16058 3.00798,1.54387 0.14708,0.3833 -0.11172,2.30687 -0.57511,4.2746 -0.81653,3.46728 -0.8802,3.56839 -2.06254,3.2757 -2.68423,-0.66446 -11.73278,-0.83714 -13.48935,-0.25742 -2.52378,0.83292 -4.69693,2.93578 -5.98817,5.79448 -1.00962,2.23522 -1.12263,3.151 -1.12332,9.10334 -4.7e-4,5.90696 0.11601,6.87146 1.08595,8.97583 2.07425,4.50027 4.93718,6.36409 9.78589,6.3708 5.15358,0.007 5.0159,0.15897 4.86129,-5.36057 l -0.13406,-4.7861 -3.30906,-0.23636 -3.30906,-0.23636 v -4.01814 -4.01814 l 8.15446,-0.12934 8.15446,-0.12935 v 12.29233 12.29234 l -1.78694,0.91162 c -4.22126,2.15353 -9.77504,2.96163 -15.98823,2.32636 z m 110.562876,0.0535 c -3.86117,-0.37996 -6.46319,-2.06195 -7.85768,-5.07935 -0.96598,-2.0902 -1.02184,-2.89593 -1.02184,-14.73821 v -12.52714 h 4.72722 4.72722 l 0.24502,11.10897 c 0.13477,6.10993 0.42269,11.4793 0.63982,11.93191 0.61595,1.28391 3.52255,1.96581 5.75195,1.34945 3.36108,-0.92924 3.1838,-0.22064 3.11837,-12.46442 -0.0451,-8.43745 0.0843,-11.22445 0.53868,-11.60154 0.33861,-0.28102 2.43932,-0.45901 4.84289,-0.41034 l 4.24488,0.086 0.12475,15.56787 c 0.084,10.47688 -0.0373,15.66803 -0.37079,15.87414 -0.27255,0.16844 -1.65931,0.35334 -3.08169,0.41089 -2.37177,0.0959 -2.62361,0.006 -3.03801,-1.08385 l -0.45186,-1.18849 -2.50022,1.14159 c -3.13229,1.43018 -6.84282,1.99609 -10.63871,1.62255 z m -62.433546,-0.46998 c -2.34442,-0.71661 -5.053,-3.68574 -5.6976,-6.24569 -0.3021,-1.19976 -0.54773,-5.57916 -0.54773,-9.76581 v -7.59058 l -2.00907,-0.007 c -2.99466,-0.0108 -3.26105,-0.33893 -3.0972,-3.81517 l 0.14269,-3.02723 2.48179,-0.66171 2.48179,-0.6617 v -4.65884 -4.65883 h 4.69826 4.69825 l 0.31574,2.10548 c 0.17365,1.158 0.22306,3.1706 0.10979,4.47242 l -0.20594,2.36696 3.58277,0.13661 3.58277,0.13661 0.13662,3.85835 0.13663,3.85835 -1.4531,0.31915 c -0.79921,0.17553 -2.42326,0.24744 -3.60901,0.15979 l -2.15591,-0.15937 0.0644,7.3272 c 0.0772,8.78061 0.24239,9.11678 4.4792,9.11678 h 2.63749 v 3.44999 c 0,2.22508 -0.20699,3.57791 -0.58298,3.81029 -0.91164,0.56342 -8.46023,0.66283 -10.18969,0.13419 z m 99.644436,-0.25492 c -1.16998,-0.42374 -2.54685,-1.06388 -3.0597,-1.42255 -1.19604,-0.83646 -1.66752,-0.82506 -1.66752,0.0403 0,1.07625 -1.58439,1.67116 -4.45078,1.67116 -2.32748,0 -2.65105,-0.11949 -2.88032,-1.06363 -0.14205,-0.58499 -0.19928,-11.0617 -0.12718,-23.28157 l 0.13109,-22.21794 4.8454,-0.13472 4.8454,-0.13472 v 7.73767 c 0,4.25571 0.11914,7.8568 0.26476,8.00242 0.14561,0.14561 0.88855,-0.0464 1.65098,-0.42679 0.76242,-0.38035 2.7347,-0.91499 4.38285,-1.1881 2.45955,-0.40756 3.4765,-0.35705 5.67411,0.28181 5.74956,1.67144 7.92365,5.38904 8.25841,14.12152 0.34753,9.06541 -1.37286,14.70921 -5.26994,17.28817 -1.57338,1.04121 -2.44587,1.23343 -6.15185,1.35532 -3.10515,0.10213 -4.91612,-0.0744 -6.44571,-0.62839 z m 6.39558,-7.94928 c 2.24046,-1.46801 2.79184,-11.17604 0.82397,-14.50738 -1.18497,-2.00599 -3.63763,-2.64477 -6.85365,-1.78499 l -2.49315,0.66652 v 7.79572 7.79572 l 2.12725,0.57399 c 2.48526,0.67059 4.85357,0.47078 6.39558,-0.53958 z m -129.427856,7.85167 -1.30632,-0.15019 0.12451,-15.686 0.12452,-15.686 h 4.49086 4.49086 l 0.12455,15.71801 c 0.11676,14.7336 0.0723,15.72069 -0.70908,15.76083 -2.9737,0.15271 -6.22184,0.1719 -7.3399,0.0434 z m 39.21936,0.0879 c -0.18239,-0.18239 -0.33163,-10.71969 -0.33163,-23.41622 v -23.0846 h 4.71656 4.71656 l 0.12884,8.62718 0.12885,8.62718 6.972646,0.13081 6.97265,0.13083 v -8.77454 -8.77454 l 4.8454,0.13472 4.84541,0.13472 0.0899,22.67626 c 0.0554,13.97527 -0.0847,22.88664 -0.36511,23.22455 -0.48805,0.58807 -7.31905,0.89299 -8.64098,0.38572 -0.68353,-0.2623 -0.77466,-1.45917 -0.77466,-10.17386 v -9.87659 h -7.081426 -7.08143 l -0.12758,10.04535 -0.12759,10.04534 -4.27741,0.13466 c -2.35258,0.0741 -4.42665,-0.0146 -4.60904,-0.19697 z m -39.37848,-36.29002 c -1.33831,-1.33831 -1.60725,-1.95353 -1.60725,-3.67659 0,-2.36289 0.87426,-3.86506 2.84155,-4.88238 2.25764,-1.16748 4.05698,-0.89534 6.02893,0.91182 1.55443,1.42453 1.76576,1.88149 1.76576,3.8181 0,1.9366 -0.21133,2.39356 -1.76576,3.8181 -2.48262,2.27514 -4.99525,2.27893 -7.26323,0.011 z"
           id="path156" />
      </g>
    </g>
  </g>
</svg>
